<svg id="Capa_1" enable-background="new 0 0 510.126 510.126" height="512" viewBox="0 0 510.126 510.126" width="512" xmlns="http://www.w3.org/2000/svg"><g id="XMLID_141_"><path id="XMLID_382_" d="m-15.488 421.468h178.335v30h-178.335z" fill="#ffb64c" transform="matrix(.707 -.707 .707 .707 -287.05 179.938)"/><path id="XMLID_202_" d="m-10.185 434.271h178.335v15h-178.335z" fill="#ff8700" transform="matrix(.707 -.707 .707 .707 -289.246 185.241)"/><path id="XMLID_769_" d="m482.756 134.392-.642-.624c-4.596-4.424-6.785-10.642-5.857-16.632 3.55-22.912-4.11-46.371-20.492-62.754-16.144-16.142-38.395-23.701-61.056-20.738-7.199.941-14.158-1.385-19.087-6.388l-.486-.49c-35.688-35.688-93.757-35.689-129.444 0-3.063 3.063-5.924 6.356-8.506 9.79-1.855 2.467-4.911 3.664-7.708 3.068l-.198-.043c-24.426-5.36-49.556 1.984-67.22 19.647-10.699 10.7-17.711 24.216-20.279 39.089-.849 4.928-4.582 8.661-9.518 9.511-14.87 2.569-28.385 9.582-39.082 20.279-16.32 16.32-23.99 39.704-20.516 62.554 1.621 10.652-1.617 21.235-8.637 28.281-.397.396-.794.808-1.185 1.213l-.172.179c-26.534 28.038-26.579 72-.1 100.087 7.131 7.56 15.574 13.398 25.101 17.356 10.547 4.375 18.452 12.063 22.256 21.64 3.673 9.253 9.121 17.532 16.193 24.605 7.064 7.064 15.341 12.512 24.606 16.195 9.574 3.799 17.257 11.701 21.637 22.257 3.956 9.521 9.794 17.963 17.356 25.096 14.023 13.22 32.002 19.828 49.983 19.827 18.03 0 36.063-6.646 50.101-19.931l.075-.072c.439-.422.887-.854 1.289-1.256 7.071-7.043 17.659-10.282 28.312-8.664 22.85 3.475 46.231-4.196 62.551-20.516 10.711-10.71 17.724-24.227 20.28-39.088.85-4.929 4.583-8.662 9.507-9.51 14.863-2.557 28.382-9.57 39.093-20.282 17.661-17.661 25.009-42.785 19.674-67.123l-.045-.206c-.618-2.875.587-5.94 3.071-7.809 3.434-2.583 6.72-5.438 9.768-8.486 17.347-17.346 26.837-40.479 26.723-65.139-.113-24.667-9.824-47.723-27.346-64.923z" fill="#ffb9eb"/><path id="XMLID_222_" d="m482.756 134.392-.642-.624c-4.596-4.424-6.785-10.642-5.857-16.632 3.55-22.912-4.11-46.371-20.492-62.754l-329.642 329.642c7.064 7.064 15.34 12.512 24.606 16.195 9.574 3.799 17.257 11.701 21.637 22.257 3.956 9.521 9.794 17.963 17.356 25.096 14.023 13.22 32.002 19.828 49.983 19.827 18.03 0 36.063-6.646 50.101-19.931l.075-.072c.439-.422.887-.854 1.289-1.256 7.071-7.043 17.659-10.282 28.312-8.664 22.85 3.475 46.231-4.196 62.551-20.516 10.711-10.71 17.724-24.227 20.28-39.088.85-4.929 4.583-8.662 9.507-9.51 14.863-2.557 28.382-9.57 39.093-20.282 17.661-17.661 25.009-42.785 19.674-67.123l-.045-.206c-.618-2.875.587-5.94 3.071-7.809 3.434-2.583 6.72-5.438 9.768-8.486 17.347-17.346 26.837-40.479 26.723-65.139-.115-24.669-9.826-47.725-27.348-64.925z" fill="#ff9ac9"/><path id="XMLID_345_" d="m261.693 360.817c-17.871 0-35.742-6.803-49.348-20.408l21.213-21.213c15.515 15.515 40.758 15.513 56.27 0l21.213 21.213c-13.605 13.605-31.476 20.408-49.348 20.408z" fill="#ff81ac"/><path id="XMLID_276_" d="m346.915 142.18c-15.515-15.515-40.758-15.513-56.271 0l-21.213-21.213c27.21-27.21 71.484-27.212 98.696 0z" fill="#ff9ac9"/></g></svg>