<svg id="Layer_1" height="512" viewBox="0 0 128 128" width="512" xmlns="http://www.w3.org/2000/svg" data-name="Layer 1"><path d="m114.779 67.903-21.446-45.234-15.666-6h-27.334l-15.666 6-21.446 45.234 14.154 12.433 11.236-21.444-5 55.887h60.778l-5-55.887 11.236 21.444z" fill="#fbbe2c"/><path d="m13.221 67.903 3.11-6.559 14.353 12.677-3.309 6.315z" fill="#e7ffff"/><path d="m114.779 67.903-3.11-6.559-14.353 12.677 3.309 6.315z" fill="#e7ffff"/><path d="m77.667 13.221h-27.334v3.448l13.667 37.813 13.667-37.813z" fill="#b95d4f"/><path d="m94 88h-60l1-8h58z" fill="#b95d4f"/><path d="m50.333 16.669-8.078 3.094 21.745 34.719z" fill="#e7ffff"/><path d="m77.667 16.669 8.078 3.094-21.745 34.719z" fill="#e7ffff"/><path d="m64 80h6.333v21.721h-6.333z" fill="#a24f41"/><path d="m70.333 80h6.333v13.083h-6.333z" fill="#b95d4f"/></svg>